<svg width="120" height="27" viewBox="0 0 120 27" fill="none" xmlns="http://www.w3.org/2000/svg">
<g id="ico_tipoNequi">
<path id="Fill 1" fill-rule="evenodd" clip-rule="evenodd" d="M120 1.66904C120 1.28267 119.659 0.934387 119.281 0.934387H116.874C116.458 0.934387 116.156 1.28267 116.156 1.66904V25.9258C116.156 26.3116 116.497 26.6599 116.874 26.6599H119.281C119.698 26.6599 120 26.3116 120 25.9258V1.66904Z" fill="white"/>
<path id="Fill 4" fill-rule="evenodd" clip-rule="evenodd" d="M21.078 0.942566H18.7507C18.3423 0.942566 18.0455 1.29326 18.0455 1.68266L18.0337 18.7066L2.21675 1.29508C2.21675 1.29508 1.96374 0.947403 1.51507 0.947403C1.0936 0.947403 0.705222 0.942566 0.705222 0.942566C0.332808 0.942566 0 1.25396 0 1.64275V24.8819V25.9122C0 26.301 0.319803 26.6523 0.690443 26.6523H3.05557C3.46404 26.6523 3.76079 26.301 3.76079 25.9122L3.73655 8.4614L20.0536 26.344C20.0536 26.344 20.3704 26.6523 20.5543 26.6523H21.0609C21.4315 26.6523 21.7661 26.3409 21.7661 25.9521L21.7833 25.5156V1.68266C21.7833 1.29326 21.4487 0.942566 21.078 0.942566Z" fill="white"/>
<path id="Fill 6" fill-rule="evenodd" clip-rule="evenodd" d="M44.0255 26.6504H45.0209C45.4365 26.6504 45.738 26.3033 45.738 25.9188V23.7209C45.738 23.3363 45.4365 22.9892 45.0209 22.9892H38.4984L38.496 22.9935H35.6586V15.0072H36.1953L36.1941 15.009H45.0345C45.4501 15.009 45.7516 14.662 45.7516 14.2774V12.0795C45.7516 11.6944 45.4501 11.3479 45.0345 11.3479H44.6716V11.3473H35.6586V4.60361H45.0209C45.4365 4.60361 45.738 4.25654 45.738 3.87198V1.67407C45.738 1.28951 45.4365 0.942444 45.0209 0.942444H38.4883H32.561C32.1455 0.942444 31.844 1.28951 31.844 1.67407V25.9218C31.844 26.3021 32.1396 26.645 32.5486 26.6522H44.0255V26.6504Z" fill="white"/>
<path id="Fill 8" fill-rule="evenodd" clip-rule="evenodd" d="M106.111 1.66252C106.111 1.28401 105.777 0.942383 105.407 0.942383H103.048C102.64 0.942383 102.344 1.28401 102.344 1.66252L102.356 16.1155C102.356 18.3527 102.171 19.4127 101.578 20.4738C100.689 22.0284 98.9095 23.0508 96.9842 23.0508C95.0204 23.0508 93.2411 22.0284 92.3514 20.4738C91.7597 19.4127 91.5735 18.3527 91.5735 16.1155L91.5871 1.66252C91.5871 1.28401 91.2537 0.942383 90.8837 0.942383H88.5239C88.116 0.942383 87.8198 1.28401 87.8198 1.66252L87.8328 17.1398C87.8328 19.6025 88.4246 21.4225 89.7221 23.0895C91.4636 25.3249 94.1668 26.6522 96.9842 26.6522C99.7631 26.6522 102.467 25.3249 104.208 23.0895C105.506 21.4225 106.098 19.5656 106.098 17.1398L106.111 1.66252Z" fill="white"/>
<path id="Fill 10" fill-rule="evenodd" clip-rule="evenodd" d="M73.426 19.9737C75.0581 18.1936 75.7474 16.4123 75.7474 13.8534C75.7474 8.54817 71.8293 4.46617 66.7149 4.46617C61.5655 4.46617 57.7935 8.4738 57.7935 13.9278C57.7935 16.6342 58.663 18.7867 60.4045 20.4943C62.1093 22.1637 64.358 23.1269 66.57 23.1269C68.0573 23.1269 69.69 22.72 70.8859 22.0156M73.4615 24.6482C71.467 25.9476 69.0735 26.652 66.7149 26.652C63.1604 26.652 59.571 25.0207 57.1403 22.2375C55.1458 20.0118 54.1296 17.0804 54.1296 13.8897C54.1296 6.72999 59.7513 0.942871 66.7521 0.942871C73.7884 0.942871 79.4094 6.80436 79.4094 14.1116C79.4094 17.4891 78.3584 20.048 75.9643 22.6081" fill="white"/>
<path id="Fill 12" fill-rule="evenodd" clip-rule="evenodd" d="M78.898 25.584C79.4785 26.1705 79.2858 26.65 78.47 26.6494L75.9619 26.6469C75.6273 26.6463 75.1591 26.4492 74.9209 26.2086L66.7219 17.9224C66.1692 17.3643 66.5563 16.4017 67.3331 16.4023L69.2076 16.4042C69.5422 16.4048 70.0103 16.6019 70.2486 16.8425L78.898 25.584Z" fill="white"/>
</g>
</svg>
