<svg xmlns="http://www.w3.org/2000/svg">
  <defs>
    <!-- ic_back - Flecha atras -->
    <symbol id="nq-icon-back" viewBox="0 0 24 24">
      <path d="M20 11H7.83l5.59-5.59L12 4l-8 8 8 8 1.41-1.41L7.83 13H20v-2z" fill="currentColor"/>
    </symbol>

    <!-- ic_back_arrow - Flecha atras alternativa -->
    <symbol id="nq-icon-back-arrow" viewBox="0 0 24 24">
      <path d="M15.41 7.41L14 6l-6 6 6 6 1.41-1.41L10.83 12z" fill="currentColor"/>
    </symbol>

    <!-- ic_chevron_right -->
    <symbol id="nq-icon-chevron-right" viewBox="0 0 24 24">
      <path d="M10 6L8.59 7.41 13.17 12l-4.58 4.59L10 18l6-6z" fill="currentColor"/>
    </symbol>

    <!-- ic_close (X) -->
    <symbol id="nq-icon-close" viewBox="0 0 24 24">
      <path d="M19 6.41L17.59 5 12 10.59 6.41 5 5 6.41 10.59 12 5 17.59 6.41 19 12 13.41 17.59 19 19 17.59 13.41 12z" fill="currentColor"/>
    </symbol>

    <!-- ic_menu (hamburger) -->
    <symbol id="nq-icon-menu" viewBox="0 0 24 24">
      <path d="M3 18h18v-2H3v2zm0-5h18v-2H3v2zm0-7v2h18V6H3z" fill="currentColor"/>
    </symbol>

    <!-- ic_flashlight -->
    <symbol id="nq-icon-flashlight" viewBox="0 0 28 28">
      <path d="M14 2C14 2 8 8 8 14a6 6 0 0012 0c0-6-6-12-6-12z" fill="none" stroke="currentColor" stroke-width="1.5"/>
      <circle cx="14" cy="14" r="2" fill="currentColor"/>
    </symbol>

    <!-- ic_gallery -->
    <symbol id="nq-icon-gallery" viewBox="0 0 28 28">
      <rect x="3" y="5" width="22" height="18" rx="2" fill="none" stroke="currentColor" stroke-width="1.5" stroke-linejoin="round"/>
      <circle cx="9" cy="11" r="2.5" fill="none" stroke="currentColor" stroke-width="1.5"/>
      <path d="M3 19l6-6 4 4 3-3 9 9" fill="none" stroke="currentColor" stroke-width="1.5" stroke-linecap="round" stroke-linejoin="round"/>
    </symbol>

    <!-- ic_reload -->
    <symbol id="nq-icon-reload" viewBox="0 0 24 24">
      <path d="M17.65 6.35A7.958 7.958 0 0012 4c-4.42 0-7.99 3.58-7.99 8s3.57 8 7.99 8c3.73 0 6.84-2.55 7.73-6h-2.08A5.99 5.99 0 0112 18c-3.31 0-6-2.69-6-6s2.69-6 6-6c1.66 0 3.14.69 4.22 1.78L13 11h7V4l-2.35 2.35z" fill="currentColor"/>
    </symbol>

    <!-- ic_qr / scan -->
    <symbol id="nq-icon-qr" viewBox="0 0 24 24">
      <path d="M3 11h2V9H3v2zm0-4h2V5h2V3H3v4zm4 12h2v-2H7v2zm8-16h2v2h2V3h-4zm-4 16h2v-2h-2v2zm-4 0h2v-2H7v2zM3 19h2v-2H3v2zm0-4h2v-2H3v2zM7 3v4h4V3H7zm2 2v0zm8 0v4h4V3h-4zm2 2v0zM7 13v4h4v-4H7zm2 2v0zm8-2v4h4v-4h-4zm2 2v0zM3 3v4h4V3H3zm2 2v0z" fill="currentColor"/>
    </symbol>

    <!-- ic_send (chat) -->
    <symbol id="nq-icon-send" viewBox="0 0 24 24">
      <path d="M2.01 21L23 12 2.01 3 2 10l15 2-15 2z" fill="currentColor"/>
    </symbol>

    <!-- ic_attach -->
    <symbol id="nq-icon-attach" viewBox="0 0 24 24">
      <path d="M16.5 6v11.5c0 2.21-1.79 4-4 4s-4-1.79-4-4V5c0-1.38 1.12-2.5 2.5-2.5s2.5 1.12 2.5 2.5v10.5c0 .55-.45 1-1 1s-1-.45-1-1V6H10v9.5c0 1.38 1.12 2.5 2.5 2.5s2.5-1.12 2.5-2.5V5c0-2.21-1.79-4-4-4S7 2.79 7 5v12.5c0 3.04 2.46 5.5 5.5 5.5s5.5-2.46 5.5-5.5V6h-1.5z" fill="currentColor"/>
    </symbol>

    <!-- ic_location / marker -->
    <symbol id="nq-icon-location" viewBox="0 0 24 24">
      <path d="M12 2C8.13 2 5 5.13 5 9c0 5.25 7 13 7 13s7-7.75 7-13c0-3.87-3.13-7-7-7zm0 9.5c-1.38 0-2.5-1.12-2.5-2.5s1.12-2.5 2.5-2.5 2.5 1.12 2.5 2.5-1.12 2.5-2.5 2.5z" fill="currentColor"/>
    </symbol>

    <!-- ic_help (?) -->
    <symbol id="nq-icon-help" viewBox="0 0 24 24">
      <path d="M12 2C6.48 2 2 6.48 2 12s4.48 10 10 10 10-4.48 10-10S17.52 2 12 2zm1 17h-2v-2h2v2zm2.07-7.75l-.9.92C13.45 12.9 13 13.5 13 15h-2v-.5c0-1.1.45-2.1 1.17-2.83l1.24-1.26c.37-.36.59-.86.59-1.41 0-1.1-.9-2-2-2s-2 .9-2 2H8c0-2.21 1.79-4 4-4s4 1.79 4 4c0 .88-.36 1.68-.93 2.25z" fill="currentColor"/>
    </symbol>

    <!-- ic_copy -->
    <symbol id="nq-icon-copy" viewBox="0 0 24 24">
      <rect x="9" y="9" width="13" height="13" rx="2" ry="2" fill="none" stroke="currentColor" stroke-width="2"/>
      <path d="M5 15H4a2 2 0 01-2-2V4a2 2 0 012-2h9a2 2 0 012 2v1" fill="none" stroke="currentColor" stroke-width="2"/>
    </symbol>

    <!-- ic_notifications -->
    <symbol id="nq-icon-notifications" viewBox="0 0 24 24">
      <path d="M12 22c1.1 0 2-.9 2-2h-4c0 1.1.89 2 2 2zm6-6v-5c0-3.07-1.64-5.64-4.5-6.32V4c0-.83-.67-1.5-1.5-1.5s-1.5.67-1.5 1.5v.68C7.63 5.36 6 7.92 6 11v5l-2 2v1h16v-1l-2-2z" fill="currentColor"/>
    </symbol>

    <!-- ic_settings -->
    <symbol id="nq-icon-settings" viewBox="0 0 24 24">
      <path d="M19.14 12.94c.04-.3.06-.61.06-.94 0-.32-.02-.64-.07-.94l2.03-1.58c.18-.14.23-.41.12-.61l-1.92-3.32c-.12-.22-.37-.29-.59-.22l-2.39.96c-.5-.38-1.03-.7-1.62-.94l-.36-2.54c-.04-.24-.24-.41-.48-.41h-3.84c-.24 0-.43.17-.47.41l-.36 2.54c-.59.24-1.13.57-1.62.94l-2.39-.96c-.22-.08-.47 0-.59.22L2.74 8.87c-.12.21-.08.47.12.61l2.03 1.58c-.05.3-.07.62-.07.94s.02.64.07.94l-2.03 1.58c-.18.14-.23.41-.12.61l1.92 3.32c.12.22.37.29.59.22l2.39-.96c.5.38 1.03.7 1.62.94l.36 2.54c.05.24.24.41.48.41h3.84c.24 0 .44-.17.47-.41l.36-2.54c.59-.24 1.13-.56 1.62-.94l2.39.96c.22.08.47 0 .59-.22l1.92-3.32c.12-.22.07-.47-.12-.61l-2.01-1.58zM12 15.6c-1.98 0-3.6-1.62-3.6-3.6s1.62-3.6 3.6-3.6 3.6 1.62 3.6 3.6-1.62 3.6-3.6 3.6z" fill="currentColor"/>
    </symbol>

    <!-- ic_home -->
    <symbol id="nq-icon-home" viewBox="0 0 24 24">
      <path d="M10 20v-6h4v6h5v-8h3L12 3 2 12h3v8z" fill="currentColor"/>
    </symbol>

    <!-- ic_person / profile -->
    <symbol id="nq-icon-person" viewBox="0 0 24 24">
      <path d="M12 12c2.21 0 4-1.79 4-4s-1.79-4-4-4-4 1.79-4 4 1.79 4 4 4zm0 2c-2.67 0-8 1.34-8 4v2h16v-2c0-2.66-5.33-4-8-4z" fill="currentColor"/>
    </symbol>

    <!-- ic_camera -->
    <symbol id="nq-icon-camera" viewBox="0 0 24 24">
      <circle cx="12" cy="12" r="3.2" fill="currentColor"/>
      <path d="M9 2L7.17 4H4c-1.1 0-2 .9-2 2v12c0 1.1.9 2 2 2h16c1.1 0 2-.9 2-2V6c0-1.1-.9-2-2-2h-3.17L15 2H9zm3 15c-2.76 0-5-2.24-5-5s2.24-5 5-5 5 2.24 5 5-2.24 5-5 5z" fill="currentColor"/>
    </symbol>

    <!-- ic_mic (voice) -->
    <symbol id="nq-icon-mic" viewBox="0 0 24 24">
      <path d="M12 14c1.66 0 2.99-1.34 2.99-3L15 5c0-1.66-1.34-3-3-3S9 3.34 9 5v6c0 1.66 1.34 3 3 3zm5.3-3c0 3-2.54 5.1-5.3 5.1S6.7 14 6.7 11H5c0 3.41 2.72 6.23 6 6.72V21h2v-3.28c3.28-.48 6-3.3 6-6.72h-1.7z" fill="currentColor"/>
    </symbol>

    <!-- ic_fingerprint -->
    <symbol id="nq-icon-fingerprint" viewBox="0 0 24 24">
      <path d="M17.81 4.47c-.08 0-.16-.02-.23-.06C15.66 3.42 14 3 12.01 3c-1.98 0-3.86.47-5.57 1.41-.24.13-.54.04-.68-.2-.13-.24-.04-.55.2-.68C7.82 2.52 9.86 2 12.01 2c2.13 0 3.99.47 6.03 1.52.25.13.34.43.21.67-.09.18-.26.28-.44.28zM3.5 9.72c-.1 0-.2-.03-.29-.09-.23-.16-.28-.47-.12-.7.99-1.4 2.25-2.5 3.75-3.27C9.98 4.04 14 4.03 17.15 5.65c1.5.77 2.76 1.86 3.75 3.25.16.22.11.54-.12.7-.23.16-.54.11-.7-.12-.9-1.26-2.04-2.25-3.39-2.94-2.87-1.47-6.54-1.47-9.4.01-1.36.7-2.5 1.7-3.4 2.96-.08.14-.23.21-.39.21zm6.25 12.07c-.13 0-.26-.05-.35-.15-.87-.87-1.34-1.43-2.01-2.64-.69-1.23-1.05-2.73-1.05-4.34 0-2.97 2.54-5.39 5.66-5.39s5.66 2.42 5.66 5.39c0 .28-.22.5-.5.5s-.5-.22-.5-.5c0-2.42-2.09-4.39-4.66-4.39-2.57 0-4.66 1.97-4.66 4.39 0 1.44.32 2.77.93 3.85.64 1.15 1.08 1.64 1.85 2.42.19.2.19.51 0 .71-.11.1-.24.15-.37.15zm7.17-1.85c-1.19 0-2.24-.3-3.1-.89-1.49-1.01-2.38-2.65-2.38-4.39 0-.28.22-.5.5-.5s.5.22.5.5c0 1.41.72 2.74 1.94 3.56.71.48 1.54.72 2.54.72.13 0 .56-.01.96-.09.27-.05.53.13.58.41.05.27-.13.53-.41.58-.57.11-1.07.1-1.13.1zm-2.93-8.03c-.14 0-.27-.05-.38-.15-.2-.19-.21-.51-.02-.71 1.07-1.14 2.62-1.56 4.07-1.09.27.09.42.37.33.65-.09.27-.37.42-.65.33-1.08-.35-2.22-.04-3.02.82-.1.1-.23.15-.33.15zM9.9 18.78c-.13 0-.26-.05-.36-.14-.24-.21-2.4-2.15-2.4-5.29 0-.28.22-.5.5-.5s.5.22.5.5c0 2.57 1.81 4.28 2.11 4.56.21.19.22.51.03.71-.1.11-.24.16-.38.16zm-3.32-1.2c-.08 0-.16-.02-.24-.07-.83-.51-1.49-1.25-1.97-2.17-.52-1.02-.8-2.16-.8-3.31 0-.28.22-.5.5-.5s.5.22.5.5c0 .98.23 1.96.67 2.83.4.74.96 1.36 1.66 1.79.24.15.32.46.17.7-.1.16-.26.23-.49.23z" fill="currentColor"/>
    </symbol>
  </defs>
</svg>
