<svg width="48" height="48" viewBox="0 0 48 48" fill="none" xmlns="http://www.w3.org/2000/svg">
<path d="M11.803 10.0352H7.00539C6.45013 10.0352 6 10.4853 6 11.0405V15.115C6 15.6703 6.45013 16.1204 7.00539 16.1204H11.803C12.3583 16.1204 12.8084 15.6703 12.8084 15.115V11.0405C12.8084 10.4853 12.3583 10.0352 11.803 10.0352Z" fill="#DA0081"/>
<path d="M41.0299 10.0352H36.9025C36.3381 10.0352 35.8971 10.4938 35.8971 11.0405V27.5324C35.8971 27.8676 35.4562 27.991 35.2974 27.6912L25.7021 10.4761C25.5434 10.1939 25.2612 10.0352 24.926 10.0352H18.0647C17.5003 10.0352 17.0593 10.4938 17.0593 11.0405V37.3923C17.0593 37.9567 17.5179 38.3977 18.0647 38.3977H22.1921C22.7565 38.3977 23.1975 37.9391 23.1975 37.3923V20.4065C23.1975 20.0714 23.6384 19.9479 23.7972 20.2478L33.6571 37.9744C33.8158 38.2566 34.098 38.4153 34.4331 38.4153H40.9946C41.5591 38.4153 42 37.9567 42 37.41V11.0405C42 10.4761 41.5414 10.0352 40.9946 10.0352H41.0299Z" fill="#200020"/>
</svg>
