<svg width="100" height="100" viewBox="0 0 100 100" fill="none" xmlns="http://www.w3.org/2000/svg">
<path d="M38.2316 38.2898L40.1365 45.3988L59.0897 40.3203L57.1849 33.2113C56.6131 31.0774 54.4198 29.8111 52.2859 30.3829L41.0601 33.3908C38.9262 33.9626 37.6599 36.1559 38.2316 38.2898Z" stroke="#200020" stroke-width="1.5"/>
<path d="M46.1217 43.7972C46.0893 41.9614 47.2608 40.2846 49.0606 39.8024C50.8603 39.3201 52.7133 40.1865 53.6032 41.7926" stroke="#DA0081" stroke-width="1.5" stroke-linecap="round" stroke-linejoin="round"/>
<path d="M40.9289 40.3756L40.2437 37.8186C39.9578 36.7516 40.591 35.655 41.6579 35.3691L52.7573 32.395C53.8242 32.1091 54.9209 32.7423 55.2068 33.8092L55.8919 36.3662" stroke="#DA0081" stroke-width="1.5" stroke-linecap="round" stroke-linejoin="round"/>
<path d="M38.2712 49.5055C37.8066 47.7718 38.8355 45.9897 40.5693 45.5251L58.7779 40.6461C60.5116 40.1816 62.2937 41.2105 62.7583 42.9442L64.6311 49.9336C66.2392 55.9351 62.6776 62.1039 56.6761 63.712L53.9224 64.4499C47.9209 66.058 41.7521 62.4964 40.144 56.4949L38.2712 49.5055Z" stroke="#200020" stroke-width="1.5"/>
<path d="M79.4068 87.5891L78.5738 87.1157C78.4602 87.0495 78.4223 86.9075 78.4791 86.7844L81.8587 80.8584L82.19 80.2809C82.2562 80.1673 82.3983 80.1295 82.5213 80.1863L83.3544 80.6596C83.468 80.7258 83.5058 80.8678 83.449 80.9909L83.1177 81.5684L79.7382 87.4944C79.6719 87.608 79.5299 87.6459 79.4068 87.5891Z" fill="#200020"/>
<path d="M83.2364 84.6103L82.7541 85.4577C82.6894 85.5713 82.7291 85.7158 82.8427 85.7804L83.8381 86.3471C83.9517 86.4117 84.0962 86.3721 84.1609 86.2585L84.6433 85.4111C84.7079 85.2975 84.6682 85.153 84.5547 85.0883L83.5592 84.5217C83.4456 84.457 83.3011 84.4967 83.2364 84.6103Z" fill="#200020"/>
<path d="M82.0764 85.071L82.5497 84.2379C82.616 84.1243 82.5781 83.9729 82.455 83.9066L81.8586 83.5658L78.6306 81.7293L78.0531 81.398C77.9395 81.3317 77.788 81.3696 77.7218 81.4926L77.2484 82.3257C77.1822 82.4393 77.2201 82.5907 77.3431 82.657L77.9206 82.9883L81.1486 84.8248L81.745 85.1656C81.8586 85.2319 82.0101 85.194 82.0764 85.071Z" fill="#200020"/>
<path d="M12.257 83.0655C11.5565 79.383 8.00656 76.9785 4.3241 77.679C8.00656 76.9785 10.4111 73.4286 9.71054 69.7461C10.4111 73.4286 13.961 75.8331 17.6435 75.1325C13.961 75.8331 11.5565 79.383 12.257 83.0655Z" stroke="#DA0081" stroke-width="1.55" stroke-linecap="round" stroke-linejoin="round"/>
<path d="M85.4141 29.4571C86.4933 27.5165 85.7928 25.0647 83.8427 23.9855C85.7833 25.0647 88.2351 24.3642 89.3143 22.4141C88.2351 24.3547 88.9356 26.8065 90.8857 27.8857C88.9451 26.8065 86.4933 27.507 85.4141 29.4571Z" stroke="#DA0081" stroke-width="1.55" stroke-linecap="round" stroke-linejoin="round"/>
<path d="M10.4862 28.2696L66.6257 12.1915C69.2489 11.442 71.988 12.9588 72.7375 15.582L86.1032 62.2549C86.3263 63.0311 86.8884 63.6646 87.6289 63.9858L94.6865 67.0194C96.0963 67.6261 95.9713 69.6693 94.4902 70.0976L32.6672 87.8085C30.044 88.558 27.3049 87.0412 26.5554 84.418L10.4773 28.2785L10.4862 28.2696Z" stroke="#200020" stroke-width="1.55" stroke-linecap="round" stroke-linejoin="round"/>
</svg>
