<svg width="48" height="48" viewBox="0 0 48 48" fill="none" xmlns="http://www.w3.org/2000/svg">
<path d="M24 15.75C22.3683 15.75 20.7733 16.2339 19.4165 17.1404C18.0598 18.0469 17.0024 19.3354 16.378 20.8429C15.7536 22.3504 15.5902 24.0092 15.9085 25.6095C16.2269 27.2098 17.0126 28.6798 18.1664 29.8336C19.3202 30.9874 20.7902 31.7732 22.3905 32.0915C23.9909 32.4098 25.6497 32.2464 27.1571 31.622C28.6646 30.9976 29.9531 29.9402 30.8596 28.5835C31.7662 27.2268 32.25 25.6317 32.25 24C32.25 21.812 31.3808 19.7135 29.8336 18.1664C28.2865 16.6192 26.188 15.75 24 15.75Z" stroke="#200020" stroke-width="1.5" stroke-miterlimit="10"/>
<path d="M21.375 21.4826C21.375 21.4826 21.4144 20.6623 22.2923 19.9559C22.8131 19.5363 23.4375 19.4149 24 19.4065C24.5123 19.3999 24.9698 19.4848 25.2436 19.6151C25.7123 19.8382 26.625 20.3829 26.625 21.5412C26.625 22.7599 25.8281 23.3135 24.9202 23.9224C24.0122 24.5313 23.7656 25.1923 23.7656 25.8752" stroke="#200020" stroke-width="1.5" stroke-miterlimit="10" stroke-linecap="round"/>
<path d="M23.7188 29.25C24.2365 29.25 24.6562 28.8303 24.6562 28.3125C24.6562 27.7947 24.2365 27.375 23.7188 27.375C23.201 27.375 22.7812 27.7947 22.7812 28.3125C22.7812 28.8303 23.201 29.25 23.7188 29.25Z" fill="#200020"/>
</svg>
