<svg width="90" height="22" viewBox="0 0 90 22" fill="none" xmlns="http://www.w3.org/2000/svg">
<g clip-path="url(#clip0_168_330)">
<path d="M53.6745 16.3029C54.0063 13.5913 54.3379 10.9372 54.6984 8.28405C54.7447 8.15527 54.8214 8.03949 54.9218 7.94639C55.0222 7.85332 55.1435 7.78562 55.2754 7.74903C55.9282 7.70163 56.5832 7.69198 57.2371 7.72013C56.9774 9.95584 56.7179 12.1048 56.4582 14.2395C58.2467 14.7587 59.4152 14.1385 59.7468 12.3923C60.0352 10.8929 60.1941 9.36344 60.4103 7.77684L63.0354 7.77684C62.6314 9.85392 62.4009 11.9164 61.7804 13.8781C61.29 15.421 59.819 16.1427 58.2322 16.2581C56.7466 16.3894 55.2322 16.3029 53.6745 16.3029Z" fill="#01538B"/>
<path d="M44.3137 5.39856C43.8232 9.16306 43.3617 12.7978 42.8858 16.4759L40.376 16.4759C40.722 13.7497 41.0586 11.0478 41.3856 8.37009C41.5732 6.82652 42.352 6.01877 44.3137 5.39856Z" fill="#01538B"/>
<path d="M40.5922 5.45618C40.3326 7.56194 40.0874 9.55252 39.8277 11.5574C39.6539 12.8989 39.4094 14.2402 39.3085 15.596C39.2509 16.4037 38.9335 16.62 38.1979 16.548C37.7506 16.5046 37.3036 16.5337 36.7123 16.5337C37.1161 13.5191 37.4768 10.5911 37.9238 7.69189C38.097 6.65335 38.9335 6.0188 40.5922 5.45618Z" fill="#01538B"/>
<path d="M27.9283 13.3172C27.9859 11.4134 28.3034 9.52383 28.5053 7.61996L31.7649 7.61996C31.5774 9.26436 31.3612 10.8221 31.2458 12.3791C31.1304 13.8786 31.7363 14.3695 33.3372 14.1243C33.6395 11.9614 33.9285 9.76896 34.2458 7.53325L36.6834 7.53325C35.14 3.20611 30.5821 0.566635 26.0531 1.24465C21.4665 1.93679 17.8461 6.0188 17.7307 10.6643C17.6698 12.99 18.4257 15.2636 19.8671 17.0898C21.3085 18.9161 23.3442 20.1796 25.6204 20.6607C29.659 21.5406 34.0582 19.2184 35.1257 16.9394C33.7988 16.8673 32.4573 16.8525 31.1447 16.7375C29.1542 16.5626 27.8705 15.293 27.9283 13.3172ZM27.784 14.9614C27.5532 16.9953 27.4235 17.0817 25.3896 16.7067C23.4425 16.3461 22.274 15.1346 22.4044 13.1729C22.5783 10.6056 22.9957 8.0661 23.3565 5.51398C23.408 5.38637 23.4903 5.27352 23.596 5.18543C23.7017 5.09735 23.8275 5.03681 23.9623 5.00916C24.7555 4.95158 25.5633 4.98026 26.4721 4.98026C26.4145 5.8456 26.3567 6.5812 26.2982 7.37461C26.7598 7.41807 27.1636 7.46154 27.654 7.505C27.5237 8.48573 27.3944 9.40887 27.2646 10.3898C26.7309 10.4333 26.356 10.462 25.981 10.4909C25.3464 13.3468 25.1011 13.9679 27.7983 14.4718C27.8151 14.6349 27.8103 14.7996 27.784 14.9614Z" fill="#01538B"/>
<path d="M49.5057 7.76399C47.6883 7.87938 46.0722 8.48525 45.0921 10.1583C44.2844 11.5574 44.0681 13.0432 44.8324 14.5431C45.568 15.9556 46.9238 16.2883 48.3807 16.3468C49.1163 16.3757 49.8519 16.3611 50.5875 16.3611C52.5203 16.3468 52.5635 16.3468 52.8521 14.5005C53.1837 12.308 53.4147 10.1012 53.7031 7.76377C52.1745 7.73531 50.8331 7.67859 49.5057 7.76399ZM50.4289 13.995C50.4 14.1536 50.1837 14.4277 50.0684 14.4133C49.203 14.2979 48.2077 14.3557 47.4865 13.9374C46.5777 13.4326 46.7652 12.3945 47.0249 11.4855C47.3135 10.548 47.8759 9.86997 48.9001 9.75457C49.5203 9.68243 50.1405 9.74023 50.9915 9.74023C50.8042 11.269 50.6312 12.6248 50.4293 13.9952L50.4289 13.995Z" fill="#01538B"/>
<path d="M70.0885 7.80724C67.3191 6.72546 63.8864 8.87468 63.4537 11.9612C63.1076 14.3988 64.2758 16.0286 66.6991 16.2737C68.1551 16.418 69.6704 16.3459 71.1849 16.3459C71.257 15.7257 71.3002 15.1344 71.3867 14.4564C70.8387 14.4564 70.3771 14.4853 69.9444 14.4564C68.9637 14.3842 67.9827 14.3553 67.0309 14.1967C66.3097 14.0663 65.877 13.5765 65.978 12.6244C67.7665 12.6244 69.4831 12.6533 71.1851 12.6101C71.5023 12.5957 72.0072 12.4082 72.0936 12.1774C72.6847 10.6343 71.6319 8.39855 70.0885 7.80724ZM69.901 11.3123C69.901 11.4133 69.0932 11.3992 68.7759 11.3992C67.9106 11.4281 67.045 11.4135 66.0643 11.4135C66.2519 10.3174 66.7134 9.59616 67.622 9.48077C68.4152 9.39384 68.9489 9.4373 69.4257 9.79804C69.9588 10.2305 69.9164 10.9229 69.901 11.3123Z" fill="#01538B"/>
</g>
<defs>
<clipPath id="clip0_168_330">
<rect width="54.5455" height="19.7754" fill="white" transform="translate(17.7273 1.1123)"/>
</clipPath>
</defs>
</svg>
